# xmcd
#
# Track frame offsets: 
#        150
#        20297
#        43547
#        58761
#        80970
#        92078
#        116870
#        138881
#        152272
#        170342
#
# Disc length: 2532 seconds
#
# Revision: 0
# Processed by: cddbd v1.5.2PL0 Copyright (c) Steve Scherf et al.
# Submitted via: ExactAudioCopy v1.3
#
DISCID=7a09e20a
DTITLE=Jens Olav Haugen - Other Streets
DYEAR=2012
DGENRE=Instrumental Rock
TTITLE0=Remembrance
TTITLE1=On Your Knees
TTITLE2=Blue Country Blues
TTITLE3=Other Streets
TTITLE4=Song For The Newborn Child
TTITLE5=Night Rat Killer
TTITLE6=Temporarily Freedom
TTITLE7=Mphone
TTITLE8=Happiness Lost
TTITLE9=First Class Ride To Hell
EXTD=
EXTT0=
EXTT1=
EXTT2=
EXTT3=
EXTT4=
EXTT5=
EXTT6=
EXTT7=
EXTT8=
EXTT9=
PLAYORDER=
